<?xml version="1.0" encoding="utf-8"?>
<!-- Generator: Adobe Illustrator 16.0.3, SVG Export Plug-In . SVG Version: 6.00 Build 0)  -->
<!DOCTYPE svg PUBLIC "-//W3C//DTD SVG 1.1//EN" "http://www.w3.org/Graphics/SVG/1.1/DTD/svg11.dtd">
<svg version="1.1" id="レイヤー_2" xmlns="http://www.w3.org/2000/svg" xmlns:xlink="http://www.w3.org/1999/xlink" x="0px"
	 y="0px" width="192px" height="192px" viewBox="0 0 192 192" enable-background="new 0 0 192 192" xml:space="preserve">
<g>
	<path fill="#FFFFFF" d="M171.482,156.834l-52.914-76.937l48.204-55.106C163.921,21.999,160.021,20,155.714,20h-21.416L76,85.186V20
		H47v152h29v-43.729l23.299-25.542L146.506,172h9.208C164.146,172,171.018,165.149,171.482,156.834z"/>
</g>
<polygon fill="#EA363F" points="76,20 76,85.186 134.678,20 "/>
<polygon fill="#EA363F" points="99.299,102.485 76,128.271 76,173 147.522,173 "/>
<g>
	<path fill="#2C6CCE" d="M35.899,19c-4.28,0-8.263,1.795-11.245,4.423c-0.164,0.15-0.336,0.397-0.493,0.555
		c-0.029,0.028-0.272,0.11-0.302,0.139C20.99,27.011,19,31.046,19,35.444v120.604C19,164.896,27.05,173,35.899,173H47V19H35.899z"/>
</g>
<path fill="#2C6CCE" d="M172,156.048V35.444c0-4.513-1.611-8.584-4.617-11.496l-48.945,55.828l53.683,78.217
	c0.043-0.495-0.12-0.995-0.12-1.502V156.048z"/>
<g id="waku">
	<path fill="#2C6CCE" d="M156.502,23C163.131,23,169,28.815,169,35.444v121.047c0,6.629-5.869,12.509-12.498,12.509H35.455
		C28.827,169,23,163.12,23,156.491V35.444C23,28.815,28.827,23,35.455,23H157 M156.502,19H35.455C26.606,19,19,26.595,19,35.444
		v121.047C19,165.339,26.606,173,35.455,173h121.047c8.848,0,16.498-7.661,16.498-16.509V35.444C173,26.595,165.35,19,156.502,19
		L156.502,19z"/>
</g>
</svg>
