<?xml version="1.0" encoding="utf-8"?>
<!-- Generator: Adobe Illustrator 16.0.3, SVG Export Plug-In . SVG Version: 6.00 Build 0)  -->
<!DOCTYPE svg PUBLIC "-//W3C//DTD SVG 1.1//EN" "http://www.w3.org/Graphics/SVG/1.1/DTD/svg11.dtd">
<svg version="1.1" id="レイヤー_2" xmlns="http://www.w3.org/2000/svg" xmlns:xlink="http://www.w3.org/1999/xlink" x="0px"
	 y="0px" width="192px" height="192px" viewBox="0 0 192 192" enable-background="new 0 0 192 192" xml:space="preserve">
<rect fill="none" width="192" height="192"/>
<path fill="#187AD6" d="M176.876,14.68L121.38,77.809l60.639,88.029c0.1-0.768-0.019-1.544-0.019-2.338v-136
	C182,22.48,180.19,17.944,176.876,14.68z"/>
<path fill="#187AD6" d="M28.5,10C18.559,10,10,17.559,10,27.5v136c0,9.941,8.559,18.5,18.5,18.5H41V10H28.5z"/>
<path fill="#FFFFFF" d="M99.455,103.05L153.91,182H165c8.799,0,16.111-6.816,17.678-15.16l-61.173-88.781l56.089-63.284
	C174.347,11.593,169.905,10,165,10h-25.52L73,83.887V10H41v172h32v-49.708L99.455,103.05z"/>
<polygon fill="#F5312A" points="73,10 73,83.887 139.48,10 "/>
<polygon fill="#F5312A" points="99.455,103.05 73,132.292 73,182 153.91,182 "/>
<g id="waku">
	<path fill="#187AD6" d="M164.5,12c8.822,0,15.5,6.678,15.5,15.5v136c0,8.822-6.678,16.5-15.5,16.5h-136
		c-8.822,0-16.5-7.678-16.5-16.5v-136C12,18.678,19.678,12,28.5,12H164 M164.5,10h-136C18.559,10,10,17.559,10,27.5v136
		c0,9.941,8.559,18.5,18.5,18.5h136c9.941,0,17.5-8.559,17.5-18.5v-136C182,17.559,174.441,10,164.5,10L164.5,10z"/>
</g>
</svg>
